# xmcd
#
# Track frame offsets:
#  150
#  31980
#  44432
#  57592
#  76482
#  95745
#  108372
#  130795
#  153482
#  169952
#  189815
#  204277
#  219940
#  237480
#  257395
#  274082
#  296535
#  310117
#
# Disc length: 4384 seconds
#
# Revision: 2
# Processed by: cddbd v1.5.1PL2 Copyright (c) Steve Scherf et al.
# Submitted via: Collectorz.com_Music_Collector 6.11
#
DISCID=fa111e12
DTITLE=Eric Clapton - The Cream of Clapton
DYEAR=1997
DGENRE=Blues
TTITLE0=Derek and the Dominos - Layla
TTITLE1=Cream - Badge
TTITLE2=Cream - I Feel Free
TTITLE3=Cream - Sunshine Of Your Love
TTITLE4=Cream - Crossroads
TTITLE5=Cream - Strange Brew
TTITLE6=Cream - White Room
TTITLE7=Derek and the Dominos - Bell Bottom Blues
TTITLE8=Cocaine
TTITLE9=I Shot The Sheriff
TTITLE10=After Midnight
TTITLE11=Swing Low Sweet Chariot
TTITLE12=Lay Down Sally
TTITLE13=Knockin' on Heavens Door
TTITLE14=Wonderful Tonight
TTITLE15=Let It Grow
TTITLE16=Promises
TTITLE17=I Can't Stand It
EXTD=
EXTT0=
EXTT1=
EXTT2=
EXTT3=
EXTT4=
EXTT5=
EXTT6=
EXTT7=
EXTT8=
EXTT9=
EXTT10=
EXTT11=
EXTT12=
EXTT13=
EXTT14=
EXTT15=
EXTT16=
EXTT17=
PLAYORDER=
